<?xml version="1.0" encoding="UTF-8" standalone="no"?>
<!DOCTYPE svg PUBLIC "-//W3C//DTD SVG 1.1//EN"
 "http://www.w3.org/Graphics/SVG/1.1/DTD/svg11.dtd">
<!-- Generated by graphviz version 2.40.1 (20161225.0304)
 -->
<!-- Title: %3 Pages: 1 -->
<svg width="158pt" height="219pt"
 viewBox="0.00 0.00 158.28 218.85" xmlns="http://www.w3.org/2000/svg" xmlns:xlink="http://www.w3.org/1999/xlink">
<g id="graph0" class="graph" transform="scale(1 1) rotate(0) translate(4 214.8528)">
<title>%3</title>
<polygon fill="#ffffff" stroke="transparent" points="-4,4 -4,-214.8528 154.2843,-214.8528 154.2843,4 -4,4"/>
<!-- &#45;1 -->
<g id="node1" class="node">
<title>&#45;1</title>
<polygon fill="#d3d3d3" stroke="#000000" points="86.1421,-210.8528 64.1421,-210.8528 64.1421,-192.8528 86.1421,-192.8528 86.1421,-210.8528"/>
<text text-anchor="middle" x="75.1421" y="-199.6528" font-family="Times,serif" font-size="9.00" fill="#000000">&#45;1</text>
</g>
<!-- 1 -->
<g id="node3" class="node">
<title>1</title>
<ellipse fill="#ffffff" stroke="#000000" cx="14.1421" cy="-142.7107" rx="14.2857" ry="14.2857"/>
<text text-anchor="middle" x="14.1421" y="-140.5107" font-family="Times,serif" font-size="9.00" fill="#000000">1</text>
</g>
<!-- &#45;1&#45;&gt;1 -->
<g id="edge2" class="edge">
<title>&#45;1&#45;&gt;1</title>
<path fill="none" stroke="#0000ff" d="M65.6109,-192.6119C56.6589,-183.9326 43.0359,-170.7245 32.0538,-160.0768"/>
<polygon fill="#0000ff" stroke="#0000ff" points="34.2443,-157.3256 24.6284,-152.8776 29.3717,-162.3513 34.2443,-157.3256"/>
</g>
<!-- 2 -->
<g id="node4" class="node">
<title>2</title>
<ellipse fill="#ffffff" stroke="#000000" cx="94.1421" cy="-78.4264" rx="14.2857" ry="14.2857"/>
<text text-anchor="middle" x="94.1421" y="-76.2264" font-family="Times,serif" font-size="9.00" fill="#000000">2</text>
</g>
<!-- &#45;1&#45;&gt;2 -->
<g id="edge7" class="edge">
<title>&#45;1&#45;&gt;2</title>
<path fill="none" stroke="#0000ff" d="M76.5702,-192.5758C79.4806,-173.6694 86.1804,-130.1469 90.4151,-102.6379"/>
<polygon fill="#0000ff" stroke="#0000ff" points="93.8942,-103.0406 91.9565,-92.6245 86.9757,-101.9755 93.8942,-103.0406"/>
</g>
<!-- 3 -->
<g id="node5" class="node">
<title>3</title>
<ellipse fill="#ffffff" stroke="#000000" cx="136.1421" cy="-142.7107" rx="14.2857" ry="14.2857"/>
<text text-anchor="middle" x="136.1421" y="-140.5107" font-family="Times,serif" font-size="9.00" fill="#000000">3</text>
</g>
<!-- &#45;1&#45;&gt;3 -->
<g id="edge4" class="edge">
<title>&#45;1&#45;&gt;3</title>
<path fill="none" stroke="#0000ff" d="M84.6734,-192.6119C93.6253,-183.9326 107.2483,-170.7245 118.2305,-160.0768"/>
<polygon fill="#0000ff" stroke="#0000ff" points="120.9126,-162.3513 125.6559,-152.8776 116.04,-157.3256 120.9126,-162.3513"/>
</g>
<!-- 4 -->
<g id="node6" class="node">
<title>4</title>
<ellipse fill="#ffffff" stroke="#000000" cx="48.1421" cy="-78.4264" rx="14.2857" ry="14.2857"/>
<text text-anchor="middle" x="48.1421" y="-76.2264" font-family="Times,serif" font-size="9.00" fill="#000000">4</text>
</g>
<!-- &#45;1&#45;&gt;4 -->
<g id="edge5" class="edge">
<title>&#45;1&#45;&gt;4</title>
<path fill="none" stroke="#0000ff" d="M73.1127,-192.5758C68.9769,-173.6694 59.4562,-130.1469 53.4385,-102.6379"/>
<polygon fill="#0000ff" stroke="#0000ff" points="56.8043,-101.6455 51.248,-92.6245 49.966,-103.1415 56.8043,-101.6455"/>
</g>
<!-- 0 -->
<g id="node2" class="node">
<title>0</title>
<ellipse fill="#add8e6" stroke="#000000" cx="71.1421" cy="-14.1421" rx="14.2857" ry="14.2857"/>
<text text-anchor="middle" x="71.1421" y="-11.9421" font-family="Times,serif" font-size="9.00" fill="#000000">0</text>
</g>
<!-- 1&#45;&gt;0 -->
<g id="edge6" class="edge">
<title>1&#45;&gt;0</title>
<path fill="none" stroke="#0000ff" d="M13.6537,-128.394C13.6488,-112.0973 15.3447,-85.0498 25.1421,-64.2843 31.3645,-51.0962 42.281,-38.9683 51.9183,-29.9443"/>
<polygon fill="#0000ff" stroke="#0000ff" points="54.4283,-32.3963 59.5815,-23.1391 49.7802,-27.1622 54.4283,-32.3963"/>
</g>
<!-- 1&#45;&gt;4 -->
<g id="edge3" class="edge">
<title>1&#45;&gt;4</title>
<path fill="none" stroke="#0000ff" d="M20.8594,-130.0102C25.3765,-121.4697 31.445,-109.9959 36.7117,-100.038"/>
<polygon fill="#0000ff" stroke="#0000ff" points="39.8573,-101.5767 41.4388,-91.1005 33.6695,-98.3039 39.8573,-101.5767"/>
</g>
<!-- 2&#45;&gt;0 -->
<g id="edge1" class="edge">
<title>2&#45;&gt;0</title>
<path fill="none" stroke="#0000ff" d="M89.3765,-65.1067C86.5163,-57.1125 82.798,-46.7199 79.4658,-37.4064"/>
<polygon fill="#0000ff" stroke="#0000ff" points="82.7246,-36.1248 76.0603,-27.8884 76.1337,-38.4829 82.7246,-36.1248"/>
</g>
<!-- 3&#45;&gt;0 -->
<g id="edge8" class="edge">
<title>3&#45;&gt;0</title>
<path fill="none" stroke="#0000ff" d="M134.8421,-128.3496C132.8837,-112.0121 128.1532,-84.9272 117.1421,-64.2843 110.2792,-51.4179 99.3397,-39.3015 89.8506,-30.2032"/>
<polygon fill="#0000ff" stroke="#0000ff" points="92.0788,-27.4976 82.3422,-23.3202 87.3486,-32.6576 92.0788,-27.4976"/>
</g>
<!-- 4&#45;&gt;0 -->
<g id="edge9" class="edge">
<title>4&#45;&gt;0</title>
<path fill="none" stroke="#0000ff" d="M52.9078,-65.1067C55.7679,-57.1125 59.4863,-46.7199 62.8185,-37.4064"/>
<polygon fill="#0000ff" stroke="#0000ff" points="66.1506,-38.4829 66.2239,-27.8884 59.5597,-36.1248 66.1506,-38.4829"/>
</g>
</g>
</svg>
